<?xml version="1.0" standalone="no"?>
<!DOCTYPE svg PUBLIC "-//W3C//DTD SVG 20010904//EN"
 "http://www.w3.org/TR/2001/REC-SVG-20010904/DTD/svg10.dtd">
<svg version="1.0" xmlns="http://www.w3.org/2000/svg"
 width="1000.000000pt" height="1000.000000pt" viewBox="0 0 1000.000000 1000.000000"
 preserveAspectRatio="xMidYMid meet">
<metadata>
Created by potrace 1.14, written by Peter Selinger 2001-2017
</metadata>
<g transform="translate(0.000000,1000.000000) scale(0.100000,-0.100000)"
fill="#000000" stroke="none">
<path d="M0 5000 l0 -5000 5000 0 5000 0 0 5000 0 5000 -5000 0 -5000 0 0
-5000z m5507 2950 c572 -47 1036 -223 1438 -547 242 -195 515 -531 515 -634 0
-57 -33 -87 -203 -182 -217 -122 -234 -121 -334 31 -129 195 -278 344 -472
473 -254 168 -517 270 -856 330 -152 27 -486 37 -660 20 -448 -43 -854 -213
-1195 -499 -467 -391 -774 -1027 -809 -1678 -7 -136 0 -386 14 -471 105 -633
384 -1133 847 -1519 578 -482 1318 -636 2068 -430 235 64 463 168 666 304 214
143 357 284 491 485 75 111 93 127 145 127 51 0 352 -139 391 -181 44 -47 38
-97 -23 -199 -145 -242 -340 -439 -610 -616 -390 -256 -800 -410 -1295 -486
-169 -26 -533 -35 -712 -19 -628 59 -1212 332 -1682 786 -491 474 -797 1075
-897 1760 -24 166 -24 524 0 690 51 351 134 614 292 926 138 274 308 506 538
735 415 413 962 682 1561 768 238 35 547 45 782 26z"/>
</g>
</svg>
